<svg width="294" height="80" viewBox="0 0 294 80" fill="none" xmlns="http://www.w3.org/2000/svg">
<path d="M27.1111 53.3333H60.2222L74.1111 80H40.3333L27.1111 53.3333Z" fill="url(#paint0_linear_9_44)"/>
<path d="M94 53.3333H127.111L141 80H107.222L94 53.3333Z" fill="url(#paint1_linear_9_44)"/>
<path d="M0 0H33.1111L47 26.6667H13.2222L0 0Z" fill="url(#paint2_linear_9_44)"/>
<path d="M66.8889 0H100L113.889 26.6667H80.1111L66.8889 0Z" fill="url(#paint3_linear_9_44)"/>
<path d="M160.889 53.3333H194L207.889 80H174.111L160.889 53.3333Z" fill="url(#paint4_linear_9_44)"/>
<path d="M133.778 0H166.889L180.778 26.6667H147L133.778 0Z" fill="url(#paint5_linear_9_44)"/>
<path d="M227.556 53.3333H260.667L274.556 80H240.778L227.556 53.3333Z" fill="url(#paint6_linear_9_44)"/>
<path d="M200.444 0H233.556L247.444 26.6667H213.667L200.444 0Z" fill="url(#paint7_linear_9_44)"/>
<path d="M46.8889 26.6667H80L93.8889 53.3333H60.1111L46.8889 26.6667Z" fill="url(#paint8_linear_9_44)"/>
<path d="M113.556 26.6667H146.667L160.556 53.3333H126.778L113.556 26.6667Z" fill="url(#paint9_linear_9_44)"/>
<path d="M180.222 26.6667H213.333L227.222 53.3333H193.444L180.222 26.6667Z" fill="url(#paint10_linear_9_44)"/>
<path d="M246.889 26.6667H280L293.889 53.3333H260.111L246.889 26.6667Z" fill="url(#paint11_linear_9_44)"/>
<defs>
<linearGradient id="paint0_linear_9_44" x1="0" y1="40" x2="293.889" y2="40" gradientUnits="userSpaceOnUse">
<stop offset="0.2" stop-color="#0E1200"/>
<stop offset="1" stop-color="#0E1200" stop-opacity="0"/>
</linearGradient>
<linearGradient id="paint1_linear_9_44" x1="0" y1="40" x2="293.889" y2="40" gradientUnits="userSpaceOnUse">
<stop offset="0.2" stop-color="#0E1200"/>
<stop offset="1" stop-color="#0E1200" stop-opacity="0"/>
</linearGradient>
<linearGradient id="paint2_linear_9_44" x1="0" y1="40" x2="293.889" y2="40" gradientUnits="userSpaceOnUse">
<stop offset="0.2" stop-color="#0E1200"/>
<stop offset="1" stop-color="#0E1200" stop-opacity="0"/>
</linearGradient>
<linearGradient id="paint3_linear_9_44" x1="0" y1="40" x2="293.889" y2="40" gradientUnits="userSpaceOnUse">
<stop offset="0.2" stop-color="#0E1200"/>
<stop offset="1" stop-color="#0E1200" stop-opacity="0"/>
</linearGradient>
<linearGradient id="paint4_linear_9_44" x1="0" y1="40" x2="293.889" y2="40" gradientUnits="userSpaceOnUse">
<stop offset="0.2" stop-color="#0E1200"/>
<stop offset="1" stop-color="#0E1200" stop-opacity="0"/>
</linearGradient>
<linearGradient id="paint5_linear_9_44" x1="0" y1="40" x2="293.889" y2="40" gradientUnits="userSpaceOnUse">
<stop offset="0.2" stop-color="#0E1200"/>
<stop offset="1" stop-color="#0E1200" stop-opacity="0"/>
</linearGradient>
<linearGradient id="paint6_linear_9_44" x1="0" y1="40" x2="293.889" y2="40" gradientUnits="userSpaceOnUse">
<stop offset="0.2" stop-color="#0E1200"/>
<stop offset="1" stop-color="#0E1200" stop-opacity="0"/>
</linearGradient>
<linearGradient id="paint7_linear_9_44" x1="0" y1="40" x2="293.889" y2="40" gradientUnits="userSpaceOnUse">
<stop offset="0.2" stop-color="#0E1200"/>
<stop offset="1" stop-color="#0E1200" stop-opacity="0"/>
</linearGradient>
<linearGradient id="paint8_linear_9_44" x1="0" y1="40" x2="293.889" y2="40" gradientUnits="userSpaceOnUse">
<stop offset="0.2" stop-color="#0E1200"/>
<stop offset="1" stop-color="#0E1200" stop-opacity="0"/>
</linearGradient>
<linearGradient id="paint9_linear_9_44" x1="0" y1="40" x2="293.889" y2="40" gradientUnits="userSpaceOnUse">
<stop offset="0.2" stop-color="#0E1200"/>
<stop offset="1" stop-color="#0E1200" stop-opacity="0"/>
</linearGradient>
<linearGradient id="paint10_linear_9_44" x1="0" y1="40" x2="293.889" y2="40" gradientUnits="userSpaceOnUse">
<stop offset="0.2" stop-color="#0E1200"/>
<stop offset="1" stop-color="#0E1200" stop-opacity="0"/>
</linearGradient>
<linearGradient id="paint11_linear_9_44" x1="0" y1="40" x2="293.889" y2="40" gradientUnits="userSpaceOnUse">
<stop offset="0.2" stop-color="#0E1200"/>
<stop offset="1" stop-color="#0E1200" stop-opacity="0"/>
</linearGradient>
</defs>
</svg>
