<svg width="294" height="80" viewBox="0 0 294 80" fill="none" xmlns="http://www.w3.org/2000/svg">
<path d="M266.778 53.3333H233.667L219.778 80H253.556L266.778 53.3333Z" fill="url(#paint0_linear_9_41)"/>
<path d="M199.889 53.3333H166.778L152.889 80H186.667L199.889 53.3333Z" fill="url(#paint1_linear_9_41)"/>
<path d="M293.889 0H260.778L246.889 26.6667H280.667L293.889 0Z" fill="url(#paint2_linear_9_41)"/>
<path d="M227 0H193.889L180 26.6667H213.778L227 0Z" fill="url(#paint3_linear_9_41)"/>
<path d="M133 53.3333H99.8889L86 80H119.778L133 53.3333Z" fill="url(#paint4_linear_9_41)"/>
<path d="M160.111 0H127L113.111 26.6667H146.889L160.111 0Z" fill="url(#paint5_linear_9_41)"/>
<path d="M66.3333 53.3333H33.2222L19.3333 80H53.1111L66.3333 53.3333Z" fill="url(#paint6_linear_9_41)"/>
<path d="M93.4444 0H60.3333L46.4444 26.6667H80.2222L93.4444 0Z" fill="url(#paint7_linear_9_41)"/>
<path d="M247 26.6667H213.889L200 53.3333H233.778L247 26.6667Z" fill="url(#paint8_linear_9_41)"/>
<path d="M180.333 26.6667H147.222L133.333 53.3333H167.111L180.333 26.6667Z" fill="url(#paint9_linear_9_41)"/>
<path d="M113.667 26.6667H80.5556L66.6667 53.3333H100.444L113.667 26.6667Z" fill="url(#paint10_linear_9_41)"/>
<path d="M47 26.6667H13.8889L-5.27123e-07 53.3333H33.7778L47 26.6667Z" fill="url(#paint11_linear_9_41)"/>
<defs>
<linearGradient id="paint0_linear_9_41" x1="293.889" y1="40" x2="0" y2="40" gradientUnits="userSpaceOnUse">
<stop offset="0.2" stop-color="#0E1200"/>
<stop offset="1" stop-color="#0E1200" stop-opacity="0"/>
</linearGradient>
<linearGradient id="paint1_linear_9_41" x1="293.889" y1="40" x2="0" y2="40" gradientUnits="userSpaceOnUse">
<stop offset="0.2" stop-color="#0E1200"/>
<stop offset="1" stop-color="#0E1200" stop-opacity="0"/>
</linearGradient>
<linearGradient id="paint2_linear_9_41" x1="293.889" y1="40" x2="0" y2="40" gradientUnits="userSpaceOnUse">
<stop offset="0.2" stop-color="#0E1200"/>
<stop offset="1" stop-color="#0E1200" stop-opacity="0"/>
</linearGradient>
<linearGradient id="paint3_linear_9_41" x1="293.889" y1="40" x2="0" y2="40" gradientUnits="userSpaceOnUse">
<stop offset="0.2" stop-color="#0E1200"/>
<stop offset="1" stop-color="#0E1200" stop-opacity="0"/>
</linearGradient>
<linearGradient id="paint4_linear_9_41" x1="293.889" y1="40" x2="0" y2="40" gradientUnits="userSpaceOnUse">
<stop offset="0.2" stop-color="#0E1200"/>
<stop offset="1" stop-color="#0E1200" stop-opacity="0"/>
</linearGradient>
<linearGradient id="paint5_linear_9_41" x1="293.889" y1="40" x2="0" y2="40" gradientUnits="userSpaceOnUse">
<stop offset="0.2" stop-color="#0E1200"/>
<stop offset="1" stop-color="#0E1200" stop-opacity="0"/>
</linearGradient>
<linearGradient id="paint6_linear_9_41" x1="293.889" y1="40" x2="0" y2="40" gradientUnits="userSpaceOnUse">
<stop offset="0.2" stop-color="#0E1200"/>
<stop offset="1" stop-color="#0E1200" stop-opacity="0"/>
</linearGradient>
<linearGradient id="paint7_linear_9_41" x1="293.889" y1="40" x2="0" y2="40" gradientUnits="userSpaceOnUse">
<stop offset="0.2" stop-color="#0E1200"/>
<stop offset="1" stop-color="#0E1200" stop-opacity="0"/>
</linearGradient>
<linearGradient id="paint8_linear_9_41" x1="293.889" y1="40" x2="0" y2="40" gradientUnits="userSpaceOnUse">
<stop offset="0.2" stop-color="#0E1200"/>
<stop offset="1" stop-color="#0E1200" stop-opacity="0"/>
</linearGradient>
<linearGradient id="paint9_linear_9_41" x1="293.889" y1="40" x2="0" y2="40" gradientUnits="userSpaceOnUse">
<stop offset="0.2" stop-color="#0E1200"/>
<stop offset="1" stop-color="#0E1200" stop-opacity="0"/>
</linearGradient>
<linearGradient id="paint10_linear_9_41" x1="293.889" y1="40" x2="0" y2="40" gradientUnits="userSpaceOnUse">
<stop offset="0.2" stop-color="#0E1200"/>
<stop offset="1" stop-color="#0E1200" stop-opacity="0"/>
</linearGradient>
<linearGradient id="paint11_linear_9_41" x1="293.889" y1="40" x2="0" y2="40" gradientUnits="userSpaceOnUse">
<stop offset="0.2" stop-color="#0E1200"/>
<stop offset="1" stop-color="#0E1200" stop-opacity="0"/>
</linearGradient>
</defs>
</svg>
