<svg width="1604" height="289" viewBox="0 0 1604 289" fill="none" xmlns="http://www.w3.org/2000/svg">
<path d="M127.868 283.842L125.264 259.69H87.8503L85.2455 283.842H0L52.0945 81.3843H161.019L213.114 283.842H127.868ZM96.6116 181.548H116.502L113.661 156.211H99.4531L96.6116 181.548ZM218.664 283.842V81.3843H311.013L328.772 155.027H331.14L329.956 81.3843H408.098V283.842H322.853L297.989 189.125H295.621L296.805 283.842H218.664ZM420.319 283.842V81.3843H503.196V284.079L420.319 283.842ZM708.566 144.845L625.689 154.317V149.581C625.689 146.581 624.821 144.292 623.084 142.714C621.505 140.977 619.216 140.109 616.217 140.109C613.218 140.109 610.85 140.977 609.113 142.714C607.535 144.292 606.745 146.581 606.745 149.581V214.462C606.745 217.461 607.535 219.829 609.113 221.566C610.85 223.144 613.218 223.934 616.217 223.934C619.216 223.934 621.505 223.144 623.084 221.566C624.821 219.829 625.689 217.461 625.689 214.462V206.174H616.217V161.42H708.566V226.539C708.566 239.325 704.778 250.297 697.2 259.453C689.781 268.767 678.967 275.87 664.76 280.764C650.552 285.658 633.582 288.105 613.849 288.105C586.381 288.105 564.123 282.737 547.074 272.003C530.024 261.268 519.921 246.271 516.764 227.012C515.185 216.277 514.396 201.123 514.396 181.548C514.396 162.762 515.185 148.239 516.764 137.978C519.763 118.877 529.788 103.959 546.837 93.224C564.044 82.4894 586.381 77.1221 613.849 77.1221C633.108 77.1221 649.763 79.49 663.813 84.2259C677.862 88.9617 688.676 95.8287 696.253 104.827C703.988 113.825 708.093 124.56 708.566 137.031V144.845ZM803.84 81.3843V213.278C803.84 218.014 806.208 220.382 810.944 220.382C815.68 220.382 818.048 218.014 818.048 213.278V81.3843H903.294V217.067C903.294 238.378 895.953 255.506 881.272 268.451C866.591 281.553 842.359 288.105 808.576 288.105C788.37 288.105 771.479 284.869 757.903 278.396C744.484 271.924 734.539 263.32 728.067 252.586C721.752 241.851 718.595 230.169 718.595 217.54V81.3843H803.84ZM997.826 215.172H1078.34V283.842H914.948V81.1475L1073.6 81.3843V140.583H997.826V151.238H1066.5V204.517H997.826V215.172ZM1177.18 77.1221C1204.17 77.1221 1233.53 81.8579 1265.27 91.3296L1257.45 171.366C1248.14 165.841 1238.27 161.736 1227.85 159.052C1217.43 156.211 1204.8 154.238 1189.96 153.133C1186.49 152.817 1184.2 152.659 1183.1 152.659C1181.2 152.659 1179.78 152.975 1178.84 153.606C1177.89 154.238 1177.41 155.422 1177.41 157.158C1177.41 158.737 1178.2 159.842 1179.78 160.473C1181.52 160.947 1184.52 161.499 1188.78 162.131C1205.99 164.183 1219.88 166.63 1230.46 169.471C1241.03 172.155 1250.43 177.838 1258.63 186.52C1267 195.203 1271.19 207.911 1271.19 224.644C1271.19 247.218 1261.63 263.399 1242.53 273.187C1223.43 283.132 1199.12 288.105 1169.6 288.105C1155.08 288.263 1140.4 287.473 1125.56 285.737C1110.72 284 1097.3 281.632 1085.3 278.633L1092.88 186.047C1098.72 190.309 1104.25 193.94 1109.46 196.939C1114.66 199.781 1122.08 202.622 1131.71 205.464C1141.34 208.148 1153.5 210.2 1168.18 211.621C1169.44 211.778 1171.02 211.857 1172.92 211.857C1174.97 211.857 1176.47 211.621 1177.41 211.147C1178.36 210.516 1178.84 209.332 1178.84 207.595C1178.84 205.859 1178.13 204.754 1176.7 204.28C1175.28 203.649 1172.6 203.017 1168.65 202.386C1152.55 200.491 1138.98 197.965 1127.93 194.808C1117.03 191.493 1107.8 185.81 1100.22 177.759C1092.8 169.708 1089.09 158.421 1089.09 143.898C1089.09 120.534 1097.06 103.564 1113.01 92.9872C1128.95 82.4104 1150.34 77.1221 1177.18 77.1221ZM1368.88 77.1221C1395.87 77.1221 1425.24 81.8579 1456.97 91.3296L1449.15 171.366C1439.84 165.841 1429.97 161.736 1419.55 159.052C1409.13 156.211 1396.5 154.238 1381.67 153.133C1378.19 152.817 1375.9 152.659 1374.8 152.659C1372.9 152.659 1371.48 152.975 1370.54 153.606C1369.59 154.238 1369.12 155.422 1369.12 157.158C1369.12 158.737 1369.9 159.842 1371.48 160.473C1373.22 160.947 1376.22 161.499 1380.48 162.131C1397.69 164.183 1411.58 166.63 1422.16 169.471C1432.73 172.155 1442.13 177.838 1450.34 186.52C1458.7 195.203 1462.89 207.911 1462.89 224.644C1462.89 247.218 1453.34 263.399 1434.23 273.187C1415.13 283.132 1390.82 288.105 1361.3 288.105C1346.78 288.263 1332.1 287.473 1317.26 285.737C1302.42 284 1289 281.632 1277 278.633L1284.58 186.047C1290.42 190.309 1295.95 193.94 1301.16 196.939C1306.37 199.781 1313.78 202.622 1323.41 205.464C1333.04 208.148 1345.2 210.2 1359.88 211.621C1361.14 211.778 1362.72 211.857 1364.62 211.857C1366.67 211.857 1368.17 211.621 1369.12 211.147C1370.06 210.516 1370.54 209.332 1370.54 207.595C1370.54 205.859 1369.83 204.754 1368.41 204.28C1366.98 203.649 1364.3 203.017 1360.35 202.386C1344.25 200.491 1330.68 197.965 1319.63 194.808C1308.73 191.493 1299.5 185.81 1291.92 177.759C1284.5 169.708 1280.79 158.421 1280.79 143.898C1280.79 120.534 1288.76 103.564 1304.71 92.9872C1320.65 82.4104 1342.04 77.1221 1368.88 77.1221Z" fill="white"/>
<path d="M1540.92 11.0066C1573.69 11.0066 1600.3 37.7743 1600.3 70.3823C1600.3 103.152 1573.69 129.758 1540.92 129.758C1508.15 129.758 1481.55 103.152 1481.55 70.3823C1481.55 37.7743 1508.15 11.0066 1540.92 11.0066ZM1540.92 107.695C1561.37 107.695 1578.07 90.9853 1578.07 70.3823C1578.07 49.9415 1561.37 33.2319 1540.92 33.2319C1520.48 33.2319 1503.77 49.9415 1503.77 70.3823C1503.77 90.9853 1520.48 107.695 1540.92 107.695ZM1541.09 44.1012H1541.25C1554.55 44.1012 1565.91 54.4839 1567.21 67.7866H1543.68V57.2417C1543.68 55.4572 1542.87 54.6461 1541.09 54.6461C1539.3 54.6461 1538.49 55.4572 1538.49 57.2417V83.5228C1538.49 85.3073 1539.3 86.1184 1541.09 86.1184C1542.87 86.1184 1543.68 85.3073 1543.68 83.5228V72.9779H1567.21C1566.56 79.1426 1564.12 84.4961 1559.74 88.8763C1554.71 93.9054 1548.22 96.501 1541.09 96.501C1526.65 96.501 1514.97 84.6584 1514.97 70.3823C1514.97 63.2442 1517.56 56.9173 1522.59 51.8882C1527.78 46.6969 1533.95 44.1012 1541.09 44.1012Z" fill="white"/>
</svg>
