<svg width="140" height="52" viewBox="0 0 140 52" fill="none" xmlns="http://www.w3.org/2000/svg">
  <defs>
    <!-- Fade: light (near center/text)  dark (at left edge) -->
    <linearGradient id="fadeLeft" x1="100%" y1="0" x2="0" y2="0" gradientUnits="userSpaceOnUse">
      <stop offset="0" stop-color="#e8e8e4" stop-opacity="0.15"/>
      <stop offset="0.6" stop-color="#a0a09c" stop-opacity="0.2"/>
      <stop offset="1" stop-color="#2a2a2a" stop-opacity="0.35"/>
    </linearGradient>
  </defs>
  <!-- Perspective checkers: parallelograms skewed left, larger near right (center)  smaller at left edge -->
  <!-- Row 0 -->
  <path d="M0 0 L28 6 L28 19 L0 13 Z" fill="#000"/>
  <path d="M28 6 L52 11 L52 24 L28 19 Z" fill="#fff"/>
  <path d="M52 11 L72 15 L72 28 L52 24 Z" fill="#000"/>
  <path d="M72 15 L88 18 L88 31 L72 28 Z" fill="#fff"/>
  <path d="M88 18 L100 20 L100 33 L88 31 Z" fill="#000"/>
  <path d="M100 20 L108 21 L108 34 L100 33 Z" fill="#fff"/>
  <path d="M108 21 L114 22 L114 35 L108 34 Z" fill="#000"/>
  <path d="M114 22 L118 22.5 L118 35.5 L114 35 Z" fill="#fff"/>
  <!-- Row 1 -->
  <path d="M0 13 L28 19 L28 32 L0 26 Z" fill="#fff"/>
  <path d="M28 19 L52 24 L52 37 L28 32 Z" fill="#000"/>
  <path d="M52 24 L72 28 L72 41 L52 37 Z" fill="#fff"/>
  <path d="M72 28 L88 31 L88 44 L72 41 Z" fill="#000"/>
  <path d="M88 31 L100 33 L100 46 L88 44 Z" fill="#fff"/>
  <path d="M100 33 L108 34 L108 47 L100 46 Z" fill="#000"/>
  <path d="M108 34 L114 35 L114 48 L108 47 Z" fill="#fff"/>
  <path d="M114 35 L118 35.5 L118 48.5 L114 48 Z" fill="#000"/>
  <!-- Row 2 -->
  <path d="M0 26 L28 32 L28 45 L0 39 Z" fill="#000"/>
  <path d="M28 32 L52 37 L52 50 L28 45 Z" fill="#fff"/>
  <path d="M52 37 L72 41 L72 52 L52 50 Z" fill="#000"/>
  <path d="M72 41 L88 44 L88 52 L72 52 Z" fill="#fff"/>
  <path d="M88 44 L100 46 L100 52 L88 52 Z" fill="#000"/>
  <path d="M100 46 L108 47 L108 52 L100 52 Z" fill="#fff"/>
  <path d="M108 47 L114 48 L114 52 L108 52 Z" fill="#000"/>
  <path d="M114 48 L118 48.5 L118 52 L114 52 Z" fill="#fff"/>
</svg>
