<svg width="1800" height="600" viewBox="0 0 1800 600" fill="none" xmlns="http://www.w3.org/2000/svg">
<path d="M225.868 442.842L223.264 418.69H185.85L183.246 442.842H98L150.094 240.384H259.019L311.114 442.842H225.868ZM194.612 340.548H214.502L211.661 315.211H197.453L194.612 340.548ZM316.664 442.842V240.384H409.013L426.772 314.027H429.14L427.956 240.384H506.098V442.842H420.853L395.989 348.125H393.621L394.805 442.842H316.664ZM518.319 442.842V240.384H601.196V443.079L518.319 442.842ZM806.566 303.845L723.689 313.317V308.581C723.689 305.581 722.821 303.292 721.084 301.714C719.505 299.977 717.216 299.109 714.217 299.109C711.218 299.109 708.85 299.977 707.113 301.714C705.535 303.292 704.745 305.581 704.745 308.581V373.462C704.745 376.461 705.535 378.829 707.113 380.566C708.85 382.144 711.218 382.934 714.217 382.934C717.216 382.934 719.505 382.144 721.084 380.566C722.821 378.829 723.689 376.461 723.689 373.462V365.174H714.217V320.42H806.566V385.539C806.566 398.325 802.778 409.297 795.2 418.453C787.781 427.767 776.967 434.87 762.76 439.764C748.552 444.658 731.582 447.105 711.849 447.105C684.381 447.105 662.123 441.737 645.074 431.003C628.024 420.268 617.921 405.271 614.764 386.012C613.185 375.277 612.396 360.123 612.396 340.548C612.396 321.762 613.185 307.239 614.764 296.978C617.763 277.877 627.788 262.959 644.837 252.224C662.044 241.489 684.381 236.122 711.849 236.122C731.108 236.122 747.763 238.49 761.813 243.226C775.862 247.962 786.676 254.829 794.253 263.827C801.988 272.825 806.093 283.56 806.566 296.031V303.845ZM901.84 240.384V372.278C901.84 377.014 904.208 379.382 908.944 379.382C913.68 379.382 916.048 377.014 916.048 372.278V240.384H1001.29V376.067C1001.29 397.378 993.953 414.506 979.272 427.451C964.591 440.553 940.359 447.105 906.576 447.105C886.37 447.105 869.479 443.869 855.903 437.396C842.484 430.924 832.539 422.32 826.067 411.586C819.752 400.851 816.595 389.169 816.595 376.54V240.384H901.84ZM1095.83 374.172H1176.34V442.842H1012.95V240.148L1171.6 240.384V299.583H1095.83V310.238H1164.5V363.517H1095.83V374.172ZM1275.18 236.122C1302.17 236.122 1331.53 240.858 1363.27 250.33L1355.45 330.366C1346.14 324.841 1336.27 320.736 1325.85 318.052C1315.43 315.211 1302.8 313.238 1287.96 312.133C1284.49 311.817 1282.2 311.659 1281.1 311.659C1279.2 311.659 1277.78 311.975 1276.84 312.606C1275.89 313.238 1275.41 314.422 1275.41 316.158C1275.41 317.737 1276.2 318.842 1277.78 319.473C1279.52 319.947 1282.52 320.499 1286.78 321.131C1303.99 323.183 1317.88 325.63 1328.46 328.471C1339.03 331.155 1348.43 336.838 1356.63 345.52C1365 354.203 1369.19 366.911 1369.19 383.644C1369.19 406.218 1359.63 422.399 1340.53 432.187C1321.43 442.132 1297.12 447.105 1267.6 447.105C1253.08 447.263 1238.4 446.473 1223.56 444.737C1208.72 443 1195.3 440.632 1183.3 437.633L1190.88 345.047C1196.72 349.309 1202.25 352.94 1207.46 355.939C1212.66 358.781 1220.08 361.622 1229.71 364.464C1239.34 367.148 1251.5 369.2 1266.18 370.621C1267.44 370.778 1269.02 370.857 1270.92 370.857C1272.97 370.857 1274.47 370.621 1275.41 370.147C1276.36 369.516 1276.84 368.332 1276.84 366.595C1276.84 364.859 1276.13 363.754 1274.7 363.28C1273.28 362.649 1270.6 362.017 1266.65 361.386C1250.55 359.491 1236.98 356.965 1225.93 353.808C1215.03 350.493 1205.8 344.81 1198.22 336.759C1190.8 328.708 1187.09 317.421 1187.09 302.898C1187.09 279.534 1195.06 262.564 1211.01 251.987C1226.95 241.41 1248.34 236.122 1275.18 236.122ZM1466.88 236.122C1493.87 236.122 1523.24 240.858 1554.97 250.33L1547.15 330.366C1537.84 324.841 1527.97 320.736 1517.55 318.052C1507.13 315.211 1494.5 313.238 1479.67 312.133C1476.19 311.817 1473.9 311.659 1472.8 311.659C1470.9 311.659 1469.48 311.975 1468.54 312.606C1467.59 313.238 1467.12 314.422 1467.12 316.158C1467.12 317.737 1467.9 318.842 1469.48 319.473C1471.22 319.947 1474.22 320.499 1478.48 321.131C1495.69 323.183 1509.58 325.63 1520.16 328.471C1530.73 331.155 1540.13 336.838 1548.34 345.52C1556.7 354.203 1560.89 366.911 1560.89 383.644C1560.89 406.218 1551.34 422.399 1532.23 432.187C1513.13 442.132 1488.82 447.105 1459.3 447.105C1444.78 447.263 1430.1 446.473 1415.26 444.737C1400.42 443 1387 440.632 1375 437.633L1382.58 345.047C1388.42 349.309 1393.95 352.94 1399.16 355.939C1404.37 358.781 1411.78 361.622 1421.41 364.464C1431.04 367.148 1443.2 369.2 1457.88 370.621C1459.14 370.778 1460.72 370.857 1462.62 370.857C1464.67 370.857 1466.17 370.621 1467.12 370.147C1468.06 369.516 1468.54 368.332 1468.54 366.595C1468.54 364.859 1467.83 363.754 1466.41 363.28C1464.98 362.649 1462.3 362.017 1458.35 361.386C1442.25 359.491 1428.68 356.965 1417.63 353.808C1406.73 350.493 1397.5 344.81 1389.92 336.759C1382.5 328.708 1378.79 317.421 1378.79 302.898C1378.79 279.534 1386.76 262.564 1402.71 251.987C1418.65 241.41 1440.04 236.122 1466.88 236.122Z" fill="#0A0D00"/>
<path d="M1638.92 170.007C1671.69 170.007 1698.3 196.774 1698.3 229.382C1698.3 262.152 1671.69 288.758 1638.92 288.758C1606.15 288.758 1579.55 262.152 1579.55 229.382C1579.55 196.774 1606.15 170.007 1638.92 170.007ZM1638.92 266.695C1659.37 266.695 1676.07 249.985 1676.07 229.382C1676.07 208.941 1659.37 192.232 1638.92 192.232C1618.48 192.232 1601.77 208.941 1601.77 229.382C1601.77 249.985 1618.48 266.695 1638.92 266.695ZM1639.09 203.101H1639.25C1652.55 203.101 1663.91 213.484 1665.21 226.787H1641.68V216.242C1641.68 214.457 1640.87 213.646 1639.09 213.646C1637.3 213.646 1636.49 214.457 1636.49 216.242V242.523C1636.49 244.307 1637.3 245.118 1639.09 245.118C1640.87 245.118 1641.68 244.307 1641.68 242.523V231.978H1665.21C1664.56 238.143 1662.12 243.496 1657.74 247.876C1652.71 252.905 1646.22 255.501 1639.09 255.501C1624.65 255.501 1612.97 243.658 1612.97 229.382C1612.97 222.244 1615.56 215.917 1620.59 210.888C1625.78 205.697 1631.95 203.101 1639.09 203.101Z" fill="#0A0D00"/>
</svg>
