<svg width="1800" height="600" viewBox="0 0 1800 600" fill="none" xmlns="http://www.w3.org/2000/svg">
<path d="M206.204 358.718C203.024 358.718 200.711 361.031 200.711 364.211V407H116L142.888 204.62H269.52L296.408 407H211.697V364.211C211.697 361.031 209.384 358.718 206.204 358.718ZM200.711 269.96V294.534C200.711 298.293 202.445 300.027 206.204 300.027C209.384 300.027 211.697 297.715 211.697 294.534V269.96C211.697 266.779 209.384 264.466 206.204 264.466C202.445 264.466 200.711 266.201 200.711 269.96ZM365.802 304.942L380.258 407H303.642V204.62H416.108L430.853 308.99C431.142 311.592 433.744 313.905 436.057 313.905C436.346 313.905 436.924 313.616 437.213 313.616C440.394 312.749 441.839 310.725 441.839 308.412C441.839 308.123 441.839 307.834 441.839 307.544L427.384 204.62H503.999V407H391.244L376.788 303.497C376.499 299.16 373.319 298.293 371.295 298.293C370.717 298.293 365.802 298.582 365.802 304.075C365.802 304.364 365.802 304.653 365.802 304.942ZM599.165 407H518.502V204.62H599.165V407ZM710.208 411.915C653.831 411.915 609.596 367.68 609.596 311.303V306.099C609.596 247.987 657.011 200.283 715.412 200.283H715.701C772.079 200.283 818.915 244.228 821.228 300.606H721.194V268.803C721.194 265.623 718.881 263.31 715.701 263.31C712.521 263.31 710.208 265.623 710.208 268.803V343.395C710.208 346.575 712.521 348.888 715.701 348.888C719.46 348.888 721.194 347.153 721.194 343.395V311.592H821.517V407H763.694V387.34C763.694 386.473 763.405 386.184 762.827 386.184H762.249C761.96 386.184 761.381 386.473 761.092 386.762C752.13 403.242 734.494 411.915 710.208 411.915ZM1006.75 204.62V325.759C1006.75 373.174 968.004 411.915 920.3 411.915C872.885 411.915 834.143 373.174 834.143 325.759V204.62H914.806V348.599C914.806 351.779 917.119 354.092 920.3 354.092C924.058 354.092 925.793 352.357 925.793 348.599V204.62H1006.75ZM1106.66 345.708H1185.01L1176.91 407H1020.5V204.62H1185.01L1176.91 265.912H1106.66C1103.48 265.912 1101.16 268.225 1101.16 271.405C1101.16 274.585 1103.48 276.898 1106.66 276.898H1165.93L1158.12 334.721H1106.66C1103.48 334.721 1101.16 337.034 1101.16 340.214C1101.16 343.395 1103.48 345.708 1106.66 345.708ZM1277.38 284.126L1317.57 289.619C1345.61 293.378 1366.14 317.953 1366.14 345.419C1366.14 379.534 1338.1 407 1304.56 407H1193.54V326.048L1281.43 338.48C1281.72 338.48 1282.01 338.48 1282.3 338.48C1287.5 338.48 1287.79 333.565 1287.79 332.987C1287.79 330.963 1286.64 328.072 1282.88 327.783L1242.11 322C1214.65 318.242 1193.54 293.667 1193.54 266.201C1193.54 232.085 1221.01 204.62 1255.12 204.62H1366.14V285.283L1278.83 273.14C1278.25 273.14 1277.96 272.851 1277.38 272.851C1273.34 272.851 1272.76 278.344 1272.76 278.633C1272.76 280.657 1273.91 283.259 1277.38 284.126ZM1461.47 284.126L1501.66 289.619C1529.7 293.378 1550.23 317.953 1550.23 345.419C1550.23 379.534 1522.18 407 1488.65 407H1377.63V326.048L1465.52 338.48C1465.81 338.48 1466.09 338.48 1466.38 338.48C1471.59 338.48 1471.88 333.565 1471.88 332.987C1471.88 330.963 1470.72 328.072 1466.96 327.783L1426.2 322C1398.73 318.242 1377.63 293.667 1377.63 266.201C1377.63 232.085 1405.09 204.62 1439.21 204.62H1550.23V285.283L1462.91 273.14C1462.34 273.14 1462.05 272.851 1461.47 272.851C1457.42 272.851 1456.84 278.344 1456.84 278.633C1456.84 280.657 1458 283.259 1461.47 284.126Z" fill="#0A0D00"/>
<path d="M1629.08 140.641C1658.28 140.641 1681.98 164.493 1681.98 193.549C1681.98 222.75 1658.28 246.457 1629.08 246.457C1599.88 246.457 1576.17 222.75 1576.17 193.549C1576.17 164.493 1599.88 140.641 1629.08 140.641ZM1629.08 226.798C1647.29 226.798 1662.18 211.908 1662.18 193.549C1662.18 175.335 1647.29 160.446 1629.08 160.446C1610.86 160.446 1595.97 175.335 1595.97 193.549C1595.97 211.908 1610.86 226.798 1629.08 226.798ZM1629.22 170.131H1629.37C1641.22 170.131 1651.34 179.383 1652.49 191.237H1631.53V181.84C1631.53 180.25 1630.81 179.527 1629.22 179.527C1627.63 179.527 1626.91 180.25 1626.91 181.84V205.259C1626.91 206.849 1627.63 207.572 1629.22 207.572C1630.81 207.572 1631.53 206.849 1631.53 205.259V195.862H1652.49C1651.92 201.356 1649.75 206.126 1645.85 210.029C1641.36 214.51 1635.58 216.823 1629.22 216.823C1616.36 216.823 1605.95 206.271 1605.95 193.549C1605.95 187.189 1608.26 181.551 1612.74 177.07C1617.37 172.444 1622.86 170.131 1629.22 170.131Z" fill="#0A0D00"/>
</svg>
